<svg xmlns="http://www.w3.org/2000/svg" width="200" height="200" viewBox="0 0 200 200">
  <rect width="200" height="200" fill="#e0e0e0"/>
  <text x="100" y="100" font-family="Arial" font-size="24" text-anchor="middle" fill="#666666" dominant-baseline="middle">
    暂无封面
  </text>
  <path d="M100,60 C83,60 70,73 70,90 C70,107 83,120 100,120 C117,120 130,107 130,90 C130,73 117,60 100,60 Z M100,110 C88.5,110 80,101.5 80,90 C80,78.5 88.5,70 100,70 C111.5,70 120,78.5 120,90 C120,101.5 111.5,110 100,110 Z" fill="#666666"/>
  <path d="M100,125 C79,125 60,135 60,155 L60,160 L140,160 L140,155 C140,135 121,125 100,125 Z M130,150 L70,150 C72,140 85,135 100,135 C115,135 128,140 130,150 Z" fill="#666666"/>
</svg>